<svg width="56" height="56" fill="none" xmlns="http://www.w3.org/2000/svg">
    <path d="M41.253 16.287c.563-.643.92-1.44 1.027-2.287a4.666 4.666 0 0 0-2.287-4.013 9.567 9.567 0 0 0-9.333 1.727A17.175 17.175 0 0 0 28 15.167a19.644 19.644 0 0 0-2.567-3.64A9.566 9.566 0 0 0 16.1 9.8a4.947 4.947 0 0 0-2.427 4.2c.07.913.43 1.78 1.027 2.474h-4.667V52.08h35.934V16.287h-4.714zm-9.706-3.827a8.588 8.588 0 0 1 7.653-1.493 3.406 3.406 0 0 1 1.68 2.8 3.408 3.408 0 0 1-1.727 2.52H28.98a18.108 18.108 0 0 1 2.567-3.827zM15.073 14a3.548 3.548 0 0 1 1.68-2.8 8.588 8.588 0 0 1 7.654 1.494 18.107 18.107 0 0 1 2.566 3.826H16.847A3.499 3.499 0 0 1 15.073 14zm11.06 36.027h-14V30.614h14v19.413zm0-21.28h-14V18.154h14v10.593zM44.1 50.027h-14V30.614h14v19.413zm0-21.28h-14V18.154h14v10.593z" fill="#000"/>
</svg>
