<svg width="14" height="17" fill="none" xmlns="http://www.w3.org/2000/svg">
    <path fill-rule="evenodd" clip-rule="evenodd" d="M4.507 2.809c.046-.577.3-.994.677-1.284C5.616 1.192 6.249 1 7 1c.75 0 1.384.192 1.816.525.365.28.614.68.671 1.228l-.053.014c-.917.244-1.747.889-2.436 1.537-.702-.648-1.551-1.264-2.478-1.492l-.013-.003zm-.996-.08c.067-.852.457-1.53 1.063-1.997C5.227.23 6.094 0 7 0c.906 0 1.773.23 2.426.732.594.457.98 1.117 1.059 1.945.231.024.465.078.7.168.598.228 1.166.668 1.705 1.343 1.122 1.401 1.246 3.07.91 4.548-.334 1.468-1.13 2.802-1.946 3.617-1.522 1.522-3.565 3.062-4.63 3.594L7 16.06l-.224-.112c-1.065-.532-3.108-2.072-4.63-3.593C1.331 11.537.534 10.204.2 8.736c-.336-1.477-.212-3.147.91-4.548.517-.647 1.074-1.07 1.665-1.291.247-.092.492-.146.736-.168zm3.843 2.625c.75-.75 1.541-1.409 2.337-1.62a1.8 1.8 0 0 1 1.139.046c.387.147.82.457 1.28 1.032.878 1.099 1.004 2.43.715 3.702-.291 1.282-.994 2.448-1.678 3.132-1.37 1.37-3.149 2.723-4.147 3.287-.998-.564-2.777-1.918-4.146-3.287-.684-.684-1.388-1.85-1.679-3.132-.29-1.273-.163-2.603.715-3.702.433-.54.85-.835 1.234-.978.38-.142.765-.148 1.156-.051.81.2 1.629.833 2.366 1.57L7 5.708l.354-.353z" fill="#000"/>
</svg>
