<svg width="16" height="16" fill="none" xmlns="http://www.w3.org/2000/svg">
    <path fill-rule="evenodd" clip-rule="evenodd" d="M7.97 6.676a.119.119 0 0 0-.006-.002l.006.002z" fill="#000"/>
    <path d="M6.303 8.515h-.956v-1.75a.098.098 0 0 0-.098-.098h-.351a.098.098 0 0 0-.098.098v2.203a.099.099 0 0 0 .029.07l.001.001a.096.096 0 0 0 .068.028h1.405a.098.098 0 0 0 .097-.099v-.355a.098.098 0 0 0-.097-.098zM7.105 6.667h-.343a.097.097 0 0 0-.095.098v2.203c0 .055.042.099.095.099h.343a.097.097 0 0 0 .095-.099V6.765a.097.097 0 0 0-.095-.098zM9.5 6.667h-.361a.1.1 0 0 0-.1.098v1.309L8.01 6.71a.09.09 0 0 0-.016-.018.058.058 0 0 0-.005-.004l-.003-.002-.005-.004a.019.019 0 0 0-.003-.002l-.006-.003-.003-.001-.003-.001-.003-.001-.003-.002-.006-.001-.003-.001-.006-.002h-.01l-.005-.001h-.364a.1.1 0 0 0-.1.098v2.203a.1.1 0 0 0 .1.099h.36a.1.1 0 0 0 .101-.099V7.66l1.029 1.365c.007.01.016.018.025.024l.001.001a.202.202 0 0 0 .006.004l.003.001.005.003.005.002h.003a.11.11 0 0 0 .007.003h.001a.101.101 0 0 0 .026.004h.36a.1.1 0 0 0 .101-.099V6.765a.1.1 0 0 0-.1-.098zM11.37 7.218a.098.098 0 0 0 .097-.098v-.355a.098.098 0 0 0-.098-.098H9.964c-.026 0-.05.01-.068.027v.002l-.002.001a.098.098 0 0 0-.027.068v2.203c0 .027.01.05.027.068l.001.002.002.001a.097.097 0 0 0 .067.028h1.405a.098.098 0 0 0 .098-.099v-.355a.098.098 0 0 0-.098-.098h-.955v-.373h.955a.098.098 0 0 0 .098-.098v-.355a.098.098 0 0 0-.098-.098h-.955v-.373h.955z" fill="#000"/>
    <path fill-rule="evenodd" clip-rule="evenodd" d="M0 1.667C0 .747.746 0 1.667 0h12.666C15.253 0 16 .746 16 1.667v12.666c0 .92-.746 1.667-1.667 1.667H1.667C.747 16 0 15.254 0 14.333V1.667zm8.133 2.066c2.72 0 4.934 1.783 4.934 3.975 0 .877-.343 1.667-1.058 2.445-1.035 1.183-3.35 2.624-3.876 2.844-.511.214-.452-.12-.429-.253l.002-.011.07-.42c.017-.124.034-.318-.016-.442-.055-.137-.273-.207-.434-.242C4.956 11.32 3.2 9.673 3.2 7.708c0-2.192 2.213-3.975 4.933-3.975z" fill="#000"/>
</svg>
