<svg width="193" height="24" fill="none" xmlns="http://www.w3.org/2000/svg">
    <path fill-rule="evenodd" clip-rule="evenodd" d="m43.601 5.405.785 4.455h-.436c-.61-2.774-3.224-3.95-6.013-3.95-.436 0-.872 0-1.482.168v7.648h1.046c2.265 0 3.66-.842 3.66-2.605h.435v6.219h-.349c-.174-1.345-.697-3.025-3.66-3.025h-1.132v7.06c0 1.176.523 1.848 2.353 1.848v.422H31.05v-.422c1.744 0 2.354-.672 2.354-1.848v-13.7c0-1.093-.697-1.85-2.44-1.85v-.42H43.6zm15.688 0 .783 4.455h-.435c-.61-2.774-3.226-3.95-6.014-3.95-.435 0-.872 0-1.481.168v7.648h1.046c2.265 0 3.66-.842 3.66-2.605h.435v6.219h-.348c-.175-1.345-.697-3.025-3.66-3.025h-1.133v7.06c0 1.176.522 1.848 2.352 1.848v.422h-7.756v-.422c1.742 0 2.352-.672 2.352-1.848v-13.7c0-1.093-.697-1.85-2.44-1.85v-.42h12.639zm-32.072 0v.42c-1.306 0-2.091.672-2.091 1.85v13.697c0 1.262.872 1.85 2.091 1.85v.42h-7.32v-.42c1.307-.084 2.091-.588 2.091-1.85V7.674c0-1.176-.784-1.85-2.091-1.85v-.419h7.32zm-9.5-4.959.784 5.463h-.348c-1.133-2.857-3.137-4.79-7.059-4.79v19.33c0 2.1 1.22 2.772 2.527 2.772v.421H4.906v-.42c1.221 0 2.702-.673 2.702-2.774V1.118c-4.01 0-5.838 1.765-7.233 4.791H.026L.636.446h17.082zm107.195 17.23c0 2.857 2.093 4.959 5.142 4.959 1.308 0 2.876-.59 3.922-1.849l-6.1-7.565c-1.483.505-2.964 2.017-2.964 4.454zm8.367-11.263c-.006-2.335-1.055-3.53-3.136-3.53-2.093 0-3.314 1.178-3.314 3.11 0 2.185 3.051 5.211 3.051 5.211 2.441-1.344 3.399-2.689 3.399-4.79zm-2.963 5.295 5.231 6.305s.521-1.009.608-2.018c0-1.176-.608-1.596-1.655-1.764v-.336h5.665s.085.336 0 .336c-1.046.168-1.831.503-2.617 1.092-.608.757-.958 1.43-1.654 3.11l2.44 2.858c1.046 1.176 2.44 1.849 3.921 1.931v.422h-6.101v-.422l-1.743-2.016c-1.482 1.43-3.833 2.69-6.187 2.69-3.748 0-6.188-2.017-6.188-4.79 0-3.025 2.963-4.96 5.316-6.472 0 0-2.529-2.773-2.529-5.294 0-2.857 2.266-5.043 5.404-5.043 2.789 0 4.968 1.933 4.968 4.287.001 2.687-3.223 3.864-4.879 5.124zM168.312.026l.262 7.312h-.435c-.785-4.119-3.572-6.471-7.147-6.471-4.27 0-7.233 4.79-7.233 11.178 0 7.984 3.311 11.262 7.844 11.262 4.705 0 6.536-4.202 6.972-7.227h.435v3.193c-.783 1.346-3.137 4.454-8.103 4.454-6.277 0-11.157-4.959-11.157-11.597 0-6.051 5.491-11.6 11.157-11.6 3.31 0 4.181 1.347 5.488 1.347.959 0 1.395-.59 1.482-1.85h.435V.026zm22.921 20.255c.958 0 1.744.757 1.744 1.681 0 .925-.786 1.597-1.744 1.597s-1.744-.672-1.744-1.597c0-.924.786-1.681 1.744-1.681zm-17.168-6.05c0 5.63 2.264 9.075 5.839 9.075 3.661 0 5.924-3.193 5.924-9.076 0-5.38-2.003-8.405-5.838-8.489-3.921-.084-5.925 3.53-5.925 8.49zm5.752-8.91c5.393.01 9.935 3.957 9.935 9.244 0 5.126-4.27 9.077-9.761 9.077-5.404 0-9.935-4.12-9.935-9.077s4.445-9.244 9.761-9.244zM66.697 9.27l3.224 7.48h-6.363l3.138-7.48zm10.456 13.951c-.697 0-1.22-.588-1.569-1.007-.26-.421-7.582-17.734-7.582-17.734l-6.71 15.8c-.784 2.016-1.83 2.94-3.31 2.94v.421h5.489v-.42c-1.132-.084-1.83-.588-1.83-1.346 0-.587 1.742-4.621 1.742-4.621h6.623s1.83 3.782 1.917 4.622c.088.672-.958 1.344-2.005 1.344v.421h7.233v-.42h.002zm3.051-2.774c0 1.682-1.133 2.439-2.352 2.773v.421h5.49v-.42c-1.569-.335-2.44-1.346-2.44-2.774V8.6l12.81 15.38V9.187c0-2.101 1.22-3.362 2.615-3.362v-.42h-6.188v.336c1.744.505 2.964 1.513 2.964 3.446v9.078L82.469 5.406h-5.054v.336c2.178.084 2.788 1.849 2.788 2.269v12.437h.001zm16.82-14.623c.776 0 .962.005 1.569 1.092 0 0 5.838 8.994 5.838 9.077v5.378c0 1.177-1.046 1.85-2.614 1.934v.336h8.106v-.336c-1.482-.085-2.441-.757-2.441-1.934V15.07s3.747-6.471 4.095-7.06c.871-1.345 2.091-2.185 3.572-2.354v-.252h-6.622l.088.252c2.09 0 2.614 1.934 1.828 3.11l-3.399 6.05-4.181-7.058c-.7-1.093.173-2.102 1.741-2.102v-.252h-7.582v.42h.002z" fill="#000"/>
</svg>
