<svg width="56" height="56" fill="none" xmlns="http://www.w3.org/2000/svg">
    <path d="m48.58 49.653-4.013-6.393H11.48l-3.967 6.393h-.98v1.68h42.934v-1.866l-.887.186zm-38.92 0 2.66-4.666h31.22l2.847 4.666H9.66zm36.353-11.806a20.722 20.722 0 0 0-5.133-15.26 16.987 16.987 0 0 0-11.667-4.994v-7.14h5.834V8.12h-14v2.333h5.833v7.14a16.987 16.987 0 0 0-11.667 4.994 19.647 19.647 0 0 0-5.04 14v2.333h35.934l-.093-1.074zm-34.02-1.214a18.014 18.014 0 0 1 4.667-12.74A15.307 15.307 0 0 1 28 19.366a15.634 15.634 0 0 1 11.527 4.667 18.667 18.667 0 0 1 4.666 12.787l-32.2-.187z" fill="#000"/>
</svg>
