<svg width="16" height="16" fill="none" xmlns="http://www.w3.org/2000/svg">
    <path fill-rule="evenodd" clip-rule="evenodd" d="M8.5.5h2V0h-5v.5h2v3.016c-3.48.223-6.1 2.786-6.458 6.984a11.79 11.79 0 0 0-.042 1h14c0-.343-.014-.676-.042-1-.357-4.198-2.979-6.76-6.458-6.984V.5zm5.454 10c-.17-1.812-.8-3.219-1.694-4.202C11.213 5.146 9.74 4.5 8 4.5c-1.739 0-3.213.646-4.26 1.798-.894.983-1.525 2.39-1.694 4.202H13.954zm-13.171 5L2 13.5h12l1.152 2H.784zM16 16v-.5L14.5 13h-13L0 15.5v.5h16z" fill="#000"/>
</svg>
